# xmcd CD Database Entry
#
# Track frame offsets:
# 150
# 21215
# 40262
# 55400
# 71147
# 92220
# 111762
# 129167
# 144267
# 160952
# 179425
# 197737
#
# Disc length: 2923 seconds
#
# Revision: 1
# Processed by: cddbd v1.4b41PL1 Copyright (c) Steve Scherf et al.
# Submitted via: tcd 2.0b
#
DISCID=a80b690c
DTITLE=Pepe Ahlqvist and H.A.R.P. - Rocks and Water
DYEAR=1900
DGENRE=
TTITLE0=Bubble Struggle
TTITLE1=If You're Good to Your Baby
TTITLE2=Hush Now Baby
TTITLE3=T's and B's (they drive me nuts)
TTITLE4=Heal Me With The Blues
TTITLE5=Die A Little
TTITLE6=Ain't No Love (in the heart of the city)
TTITLE7=San Francisco FM Blues
TTITLE8=Guess Who Told Me
TTITLE9=Ain't No My Style
TTITLE10=Volcano
TTITLE11=Rocks and Water
EXTD=
EXTT0=
EXTT1=
EXTT2=
EXTT3=
EXTT4=
EXTT5=
EXTT6=
EXTT7=
EXTT8=
EXTT9=
EXTT10=
EXTT11=
PLAYORDER=
